<svg xmlns="http://www.w3.org/2000/svg" viewBox="0 0 24 24" width="100" height="100"><path d="M19 20c-1.1 0-2-.9-2-2s.9-2 2-2 2 .9 2 2-.9 2-2 2zm-8-11c0-1.1.9-2 2-2s2 .9 2 2-.9 2-2 2-2-.9-2-2zm-1 11c-1.1 0-2-.9-2-2s.9-2 2-2 2 .9 2 2-.9 2-2 2zm-5-4c0-1.1.9-2 2-2s2 .9 2 2-.9 2-2 2-2-.9-2-2zm1-7c0-1.1.9-2 2-2s2 .9 2 2-.9 2-2 2-2-.9-2-2zm11 2c0-1.1.9-2 2-2s2 .9 2 2-.9 2-2 2-2-.9-2-2zm-6-5c0-1.1.9-2 2-2s2 .9 2 2-.9 2-2 2-2-.9-2-2zm-5 0c0-1.1.9-2 2-2s2 .9 2 2-.9 2-2 2-2-.9-2-2z" fill="#A52A2A"/></svg>